<svg width="32" height="32" viewBox="0 0 32 32" fill="none" xmlns="http://www.w3.org/2000/svg">
<path fill-rule="evenodd" clip-rule="evenodd" d="M16 5.04188L29.1765 18.8583V28.5458C29.1765 29.4619 28.8294 30.3405 28.2116 30.9883C27.5939 31.636 26.756 31.9999 25.8823 31.9999H6.11763C5.24398 31.9999 4.40611 31.636 3.78834 30.9883C3.17057 30.3405 2.82352 29.4619 2.82352 28.5458V18.8583L16 5.04188ZM26.9804 3.21582V11.2754L22.5882 6.66991V3.21582C22.5882 2.91046 22.7039 2.6176 22.9098 2.40168C23.1158 2.18576 23.395 2.06445 23.6863 2.06445H25.8823C26.1736 2.06445 26.4529 2.18576 26.6588 2.40168C26.8647 2.6176 26.9804 2.91046 26.9804 3.21582Z" fill="#FFD369"/>
<path fill-rule="evenodd" clip-rule="evenodd" d="M14.4919 0.698046C14.8919 0.251087 15.4344 0 16 0C16.5656 0 17.1081 0.251087 17.5081 0.698046L31.6872 16.5431C31.8875 16.7669 32 17.0705 32 17.3871C32 17.7036 31.8875 18.0072 31.6872 18.2311C31.4869 18.4549 31.2153 18.5806 30.9321 18.5806C30.6488 18.5806 30.3772 18.4549 30.1769 18.2311L16 2.38364L1.82306 18.2311C1.62279 18.4549 1.35116 18.5806 1.06792 18.5806C0.784693 18.5806 0.513062 18.4549 0.312788 18.2311C0.112513 18.0072 0 17.7036 0 17.3871C0 17.0705 0.112513 16.7669 0.312788 16.5431L14.4919 0.698046Z" fill="#FFD369"/>
</svg>
