<svg width="35" height="26" viewBox="0 0 35 26" fill="none" xmlns="http://www.w3.org/2000/svg">
<path fill-rule="evenodd" clip-rule="evenodd" d="M0.109375 3.36917C0.329915 2.41203 0.872059 1.55743 1.64702 0.945335C2.42197 0.333241 3.38381 -6.60713e-05 4.375 9.82397e-09H30.625C31.6162 -6.60713e-05 32.578 0.333241 33.353 0.945335C34.1279 1.55743 34.6701 2.41203 34.8906 3.36917L17.5 13.897L0.109375 3.36917ZM0 5.8435V21.2355L12.6941 13.5265L0 5.8435ZM14.7897 14.7983L0.417812 23.5235C0.772902 24.2651 1.33334 24.8916 2.0339 25.33C2.73445 25.7684 3.54632 26.0008 4.375 26H30.625C31.4535 26.0002 32.2651 25.7673 32.9653 25.3285C33.6654 24.8897 34.2254 24.263 34.58 23.5213L20.2081 14.7962L17.5 16.4363L14.7897 14.7962V14.7983ZM22.3059 13.5287L35 21.2355V5.8435L22.3059 13.5265V13.5287Z" fill="#FFD369"/>
</svg>
