<svg width="43" height="45" viewBox="0 0 43 45" fill="none" xmlns="http://www.w3.org/2000/svg">
<g clip-path="url(#clip0)">
<path d="M17.3666 12.1621L17.2323 12.1789C19.1959 16.2979 19.4575 16.7287 18.6943 17.2607C18.1657 17.6297 16.9671 18.7048 16.6123 19.0289C16.263 19.3567 16.2361 19.6826 16.478 20.2389C16.7467 20.8008 17.3111 22.6046 19.1386 24.74C20.563 26.4033 22.3098 27.5197 22.8473 27.8493C23.7539 28.3982 23.8829 27.25 25.7749 26.2048C26.1512 26.0174 26.4468 26.113 26.7138 26.2516C26.9825 26.3921 29.6163 27.5103 30.6662 27.9786C31.7125 28.4281 31.5799 28.8908 31.5799 29.2373C31.6695 30.3162 31.6552 31.1048 30.9636 31.7997C27.7852 34.8229 24.5064 34.0606 21.0198 31.4738C14.6558 26.3902 13.4841 23.6817 11.8573 18.7292C11.4506 17.3918 11.5079 16.1724 11.6405 15.2078C11.8035 14.1326 12.9323 11.898 14.1954 11.4316C15.4585 10.9539 16.5066 10.9539 16.7485 11.0944C16.9904 11.233 17.1248 11.6002 17.3666 12.1621Z" fill="#FFD369"/>
<path d="M36.8205 6.51841C50.138 20.9207 40.4791 44.756 21.6917 44.7654C17.9363 44.7654 14.2742 43.737 11.0402 41.7778L-2.67029e-05 44.9545L2.9598 33.0884C-4.69061 18.2815 5.46814 0.00749541 21.6809 3.5489e-06C27.3713 3.61985e-06 32.7265 2.32265 36.7506 6.54651L36.8205 6.51841ZM21.74 3.74247C8.06426 3.7537 -0.476612 19.4485 6.50372 31.8615L6.88713 32.5359L5.14026 39.56L11.6709 37.6775L12.3428 38.1252C24.105 45.8499 39.4775 36.9751 39.4775 22.3424C39.4775 17.3712 37.6232 12.7053 34.2638 9.19133C30.9331 5.67926 26.47 3.74247 21.74 3.74247Z" fill="#FFD369"/>
</g>
<defs>
<clipPath id="clip0">
<rect width="44.9545" height="43" fill="white" transform="matrix(1.14064e-08 -1 -1 -1.24669e-08 43 44.9545)"/>
</clipPath>
</defs>
</svg>
